<svg xmlns="http://www.w3.org/2000/svg" aria-hidden="true" overflow="hidden" style="position:absolute;width:0;height:0">
  <defs>
    <symbol id="icon-plus" viewBox="0 0 32 32">
      <path d="M17.2 7.6c0-0.663-0.537-1.2-1.2-1.2s-1.2 0.537-1.2 1.2v7.2h-7.2c-0.663 0-1.2 0.537-1.2 1.2s0.537 1.2 1.2 1.2h7.2v7.2c0 0.663 0.537 1.2 1.2 1.2s1.2-0.537 1.2-1.2v-7.2h7.2c0.663 0 1.2-0.537 1.2-1.2s-0.537-1.2-1.2-1.2h-7.2v-7.2z"></path>
    </symbol>
    <symbol id="icon-mobile-menu" viewBox="0 0 32 32">
      <path d="M4 9c0-0.552 0.448-1 1-1h22c0.552 0 1 0.448 1 1s-0.448 1-1 1h-22c-0.552 0-1-0.448-1-1zM4 16c0-0.552 0.448-1 1-1h22c0.552 0 1 0.448 1 1s-0.448 1-1 1h-22c-0.552 0-1-0.448-1-1zM15 23c0-0.552 0.448-1 1-1h11c0.552 0 1 0.448 1 1s-0.448 1-1 1h-11c-0.552 0-1-0.448-1-1z"></path>
    </symbol>
    <symbol id="icon-close-button" viewBox="0 0 32 32">
      <path d="M5.521 25.537c-0.256 0.265-0.249 0.687 0.016 0.943s0.687 0.249 0.943-0.016l19.333-20c0.256-0.265 0.249-0.687-0.016-0.943s-0.687-0.249-0.943 0.016l-19.333 20z"></path>
      <path d="M24.854 26.463c0.256 0.265 0.678 0.272 0.943 0.016s0.272-0.678 0.016-0.943l-19.333-20c-0.256-0.265-0.678-0.272-0.943-0.016s-0.272 0.678-0.016 0.943l19.333 20z"></path>
    </symbol>
  </defs>
</svg>
